<svg xmlns="http://www.w3.org/2000/svg" viewBox="0 0 105.5 106.87"><defs><style>.cls-1{fill:#fff;fill-rule:evenodd;}.cls-2{fill:#d4cdd0;}.cls-3{fill:#290716;}</style></defs><title>logo2</title><g id="Слой_5" data-name="Слой 5"><path class="cls-1" d="M99.19,23.15a142,142,0,0,0-5.82,65.12" transform="translate(-20.29 -17.35)"/><path class="cls-2" d="M94.36,21.82A150.73,150.73,0,0,0,88.54,89.6c.88,6.35,10.52,3.64,9.65-2.66A139.47,139.47,0,0,1,104,24.47c2-6.13-7.65-8.75-9.65-2.65Z" transform="translate(-20.29 -17.35)"/><path class="cls-1" d="M79.19,22.15a142,142,0,0,0-5.82,65.12" transform="translate(-20.29 -17.35)"/><path class="cls-2" d="M74.36,20.82A150.73,150.73,0,0,0,68.54,88.6c.88,6.35,10.52,3.64,9.65-2.66A139.47,139.47,0,0,1,84,23.47c2-6.13-7.65-8.75-9.65-2.65Z" transform="translate(-20.29 -17.35)"/></g><g id="Слой_3" data-name="Слой 3"><path class="cls-1" d="M96.19,23.15a142,142,0,0,0-5.82,65.12" transform="translate(-20.29 -17.35)"/><path class="cls-3" d="M91.36,21.82A150.73,150.73,0,0,0,85.54,89.6c.88,6.35,10.52,3.64,9.65-2.66A139.47,139.47,0,0,1,101,24.47c2-6.13-7.65-8.75-9.65-2.65Z" transform="translate(-20.29 -17.35)"/><path class="cls-1" d="M76.19,22.15a142,142,0,0,0-5.82,65.12" transform="translate(-20.29 -17.35)"/><path class="cls-3" d="M71.36,20.82A150.73,150.73,0,0,0,65.54,88.6c.88,6.35,10.52,3.64,9.65-2.66A139.47,139.47,0,0,1,81,23.47c2-6.13-7.65-8.75-9.65-2.65Z" transform="translate(-20.29 -17.35)"/></g><g id="Слой_4" data-name="Слой 4"><path class="cls-2" d="M110.58,37.24C93.5,31.51,72.37,30.73,56,39.16c-6.55,3.36-13.05,9.69-14.52,17.12C39.74,64.91,43.21,71.81,52,74.2c9.7,2.63,20.77,2.62,30.76,3.45,5,.41,9.9.71,14.85,1.07,4.54.34,9.86.73,13.54,3.72,7.37,6,3.51,17-2.46,22.32-7.45,6.61-18.82,8.11-28.41,8.23-19.45.23-45.39-7.73-47.92-30.45-.7-6.33-10.71-6.4-10,0,2.16,19.38,17.14,32.64,35.32,37.61,17.52,4.78,41.44,5,56.32-6.84,14-11.11,15.91-35.14-3.09-42.23-9.27-3.45-20.32-2.76-30-3.6q-8.58-.74-17.13-1.67C59.32,65.32,50.92,65.89,51,60,51,51.15,62.56,46.54,69.66,44.82a69,69,0,0,1,38.26,2.06c6.11,2,8.74-7.6,2.66-9.64Z" transform="translate(-20.29 -17.35)"/><path class="cls-2" d="M109.58,38.24C92.5,32.51,71.37,31.73,55,40.16c-6.55,3.36-13.05,9.69-14.52,17.12C38.74,65.91,42.21,72.81,51,75.2c9.7,2.63,20.77,2.62,30.76,3.45,5,.41,9.9.71,14.85,1.07,4.54.34,9.86.73,13.54,3.72,7.37,6,3.51,17-2.46,22.32-7.45,6.61-18.82,8.11-28.41,8.23-19.45.23-45.39-7.73-47.92-30.45-.7-6.33-10.71-6.4-10,0,2.16,19.38,17.14,32.64,35.32,37.61,17.52,4.78,41.44,5,56.32-6.84,14-11.11,15.91-35.14-3.09-42.23-9.27-3.45-20.32-2.76-30-3.6q-8.58-.74-17.13-1.67C58.32,66.32,49.92,66.89,50,61,50,52.15,61.56,47.54,68.66,45.82a69,69,0,0,1,38.26,2.06c6.11,2,8.74-7.6,2.66-9.64Z" transform="translate(-20.29 -17.35)"/><path class="cls-2" d="M111.58,35.24C94.5,29.51,73.37,28.73,57,37.16c-6.55,3.36-13.05,9.69-14.52,17.12C40.74,62.91,44.21,69.81,53,72.2c9.7,2.63,20.77,2.62,30.76,3.45,5,.41,9.9.71,14.85,1.07,4.54.34,9.86.73,13.54,3.72,7.37,6,3.51,17-2.46,22.32-7.45,6.61-18.82,8.11-28.41,8.23-19.45.23-45.39-7.73-47.92-30.45-.7-6.33-10.71-6.4-10,0,2.16,19.38,17.14,32.64,35.32,37.61,17.52,4.78,41.44,5,56.32-6.84,14-11.11,15.91-35.14-3.09-42.23-9.27-3.45-20.32-2.76-30-3.6q-8.58-.74-17.13-1.67C60.32,63.32,51.92,63.89,52,58,52,49.15,63.56,44.54,70.66,42.82a69,69,0,0,1,38.26,2.06c6.11,2,8.74-7.6,2.66-9.64Z" transform="translate(-20.29 -17.35)"/></g><g id="Слой_2" data-name="Слой 2"><path class="cls-3" d="M108.58,37.89c-16.94-5.41-37.42-6.16-53.86,1.5C47.91,42.56,41,48.64,39.44,56.25c-1.76,8.48,2,15.13,10.53,17.3,9.77,2.48,20.74,2.5,30.76,3.29,5,.39,9.9.68,14.85,1,4.26.3,9.06.62,12.75,3,8.63,5.55,4.16,17-2.42,22-7.53,5.79-18.46,7-27.66,7.14-18.52.21-45.34-6.64-47.92-28.76-.74-6.31-10.75-6.39-10,0,2.22,19,17.59,31.44,35.35,36.05,17.32,4.49,40.87,4.92,55.87-6.26,6.79-5,11.75-12.78,11.55-21.47-.22-9.09-5.78-16.37-14.22-19.46-9-3.29-19.69-2.6-29.1-3.36q-8.1-.65-16.17-1.47c-3.71-.38-14,.14-14.72-4.71C48.26,56.24,53,52,56.18,50c4-2.57,8.65-3.82,13.25-4.76a72.35,72.35,0,0,1,36.49,2.34c6.14,2,8.77-7.69,2.66-9.64Z" transform="translate(-20.29 -17.35)"/></g><g id="Слой_6" data-name="Слой 6"><path class="cls-2" d="M59.68,43.46a77.22,77.22,0,0,1,24-3.76,1.5,1.5,0,0,0,0-3,79.91,79.91,0,0,0-24.79,3.86c-1.83.6-1,3.49.8,2.9Z" transform="translate(-20.29 -17.35)"/><path class="cls-2" d="M70.84,38.8a122.48,122.48,0,0,0-3.91,31.37,1.5,1.5,0,0,0,3,0,119.39,119.39,0,0,1,3.8-30.57c.48-1.87-2.41-2.67-2.89-.8Z" transform="translate(-20.29 -17.35)"/></g></svg>